<mxfile host="app.diagrams.net" modified="2024-04-07T12:33:42.555Z" agent="Mozilla/5.0 (Windows NT 10.0; Win64; x64) AppleWebKit/537.36 (KHTML, like Gecko) Chrome/123.0.0.0 Safari/537.36 Edg/123.0.0.0" version="24.2.2" etag="c1bBaKyP1Y6PM1P1L7aO" type="github">
  <diagram name="Page-1" id="GfABFGyTO2yZHYUVAuV_">
    <mxGraphModel>
      <root>
        <mxCell id="0" />
        <mxCell id="1" parent="0" />
      </root>
    </mxGraphModel>
  </diagram>
</mxfile>
